<svg width="8" height="12" viewBox="0 0 8 12" fill="none" xmlns="http://www.w3.org/2000/svg">
<path d="M7.33962 2.06621V1.03094C7.33962 0.941211 7.2365 0.891658 7.16685 0.946568L1.12935 5.66219C1.07805 5.70209 1.03655 5.75317 1.00799 5.81154C0.979442 5.86992 0.9646 5.93404 0.9646 5.99902C0.9646 6.06401 0.979442 6.12813 1.00799 6.18651C1.03655 6.24488 1.07805 6.29596 1.12935 6.33585L7.16685 11.0515C7.23783 11.1064 7.33962 11.0568 7.33962 10.9671V9.93184C7.33962 9.86621 7.30882 9.80327 7.25792 9.76309L2.43649 5.99969L7.25792 2.23496C7.30882 2.19478 7.33962 2.13184 7.33962 2.06621Z" fill="#D9D9D9"/>
</svg>
